<svg xmlns="http://www.w3.org/2000/svg" width="32.87" height="32.87" viewBox="0 0 32.87 32.87">
  <g id="Group_3586" data-name="Group 3586" transform="translate(-297.625 -97.625)">
    <g id="success" transform="translate(298 98)">
      <path id="Path_4233" data-name="Path 4233" d="M16.06,0A16.06,16.06,0,1,0,32.12,16.06,16.078,16.078,0,0,0,16.06,0Zm0,30.885A14.825,14.825,0,1,1,30.885,16.06,14.842,14.842,0,0,1,16.06,30.885Z" fill="#d0021b" stroke="#d0021b" stroke-width="0.75"/>
    </g>
    <path id="Path_4917" data-name="Path 4917" d="M.9-4.433H-.9l-.14-11.208H1.047ZM-1.112-1.01a1.184,1.184,0,0,1,.3-.819,1.113,1.113,0,0,1,.875-.331,1.131,1.131,0,0,1,.881.331,1.172,1.172,0,0,1,.3.819A1.133,1.133,0,0,1,.94-.2a1.152,1.152,0,0,1-.881.32A1.134,1.134,0,0,1-.816-.2,1.145,1.145,0,0,1-1.112-1.01Z" transform="translate(314 122)" fill="#d0021b"/>
  </g>
</svg>
