<svg xmlns="http://www.w3.org/2000/svg" width="32.87" height="32.87" viewBox="0 0 32.87 32.87">
  <g id="success" transform="translate(0.375 0.375)">
    <path id="Path_4233" data-name="Path 4233" d="M16.06,0A16.06,16.06,0,1,0,32.12,16.06,16.078,16.078,0,0,0,16.06,0Zm0,30.885A14.825,14.825,0,1,1,30.885,16.06,14.842,14.842,0,0,1,16.06,30.885Z" fill="#5f1a89" stroke="#5f1a89" stroke-width="0.75"/>
    <path id="Path_4234" data-name="Path 4234" d="M28,15.211,18.635,26.053,12.99,21.408a.6.6,0,0,0-.857.1.64.64,0,0,0,.1.882l6.1,5.017a.6.6,0,0,0,.837-.073l9.754-11.288a.639.639,0,0,0-.051-.885A.6.6,0,0,0,28,15.211Z" transform="translate(-4.475 -5.823)" fill="#5f1a89" stroke="#5f1a89" stroke-width="0.75"/>
  </g>
</svg>
